<?xml version="1.0" encoding="iso-8859-1"?>
<!-- Generator: Adobe Illustrator 20.1.0, SVG Export Plug-In . SVG Version: 6.00 Build 0)  -->
<svg xmlns="http://www.w3.org/2000/svg" xmlns:xlink="http://www.w3.org/1999/xlink" version="1.1" id="&#1057;&#1083;&#1086;&#1081;_1" x="0px" y="0px" viewBox="0 0 64 64" style="enable-background:new 0 0 64 64;" xml:space="preserve">
<linearGradient id="SVGID_1__52961" gradientUnits="userSpaceOnUse" x1="32" y1="5.6667" x2="32" y2="58.8427" spreadMethod="reflect">
	<stop offset="0" style="stop-color:#1A6DFF"/>
	<stop offset="1" style="stop-color:#C822FF"/>
</linearGradient>
<path style="fill:url(#SVGID_1__52961);" d="M32,58C17.663,58,6,46.337,6,32S17.663,6,32,6s26,11.663,26,26S46.337,58,32,58z M32,8  C18.767,8,8,18.767,8,32s10.767,24,24,24s24-10.767,24-24S45.233,8,32,8z"/>
<linearGradient id="SVGID_2__52961" gradientUnits="userSpaceOnUse" x1="32" y1="5.6667" x2="32" y2="58.8427" spreadMethod="reflect">
	<stop offset="0" style="stop-color:#1A6DFF"/>
	<stop offset="1" style="stop-color:#C822FF"/>
</linearGradient>
<path style="fill:url(#SVGID_2__52961);" d="M32,54c-12.131,0-22-9.869-22-22s9.869-22,22-22s22,9.869,22,22S44.131,54,32,54z M32,12  c-11.028,0-20,8.972-20,20s8.972,20,20,20s20-8.972,20-20S43.028,12,32,12z"/>
<linearGradient id="SVGID_3__52961" gradientUnits="userSpaceOnUse" x1="32" y1="17.5" x2="32" y2="46.8205" spreadMethod="reflect">
	<stop offset="0" style="stop-color:#6DC7FF"/>
	<stop offset="1" style="stop-color:#E6ABFF"/>
</linearGradient>
<path style="fill:url(#SVGID_3__52961);" d="M29,45V30h-3.904c-0.856,0-1.381-0.909-0.932-1.615l5.951-9.365c0.864-1.36,2.906-1.36,3.77,0  l5.951,9.365C40.285,29.091,39.76,30,38.904,30H35v15c0,0.552-0.448,1-1,1h-4C29.448,46,29,45.552,29,45z"/>
</svg>
